<?xml version="1.0" encoding="UTF-8"?>
<!DOCTYPE svg PUBLIC "-//W3C//DTD SVG 1.1//EN" "http://www.w3.org/Graphics/SVG/1.1/DTD/svg11.dtd">
<!-- Creator: CorelDRAW -->
<svg xmlns="http://www.w3.org/2000/svg" xml:space="preserve" width="144mm" height="60mm" version="1.1" style="shape-rendering:geometricPrecision; text-rendering:geometricPrecision; image-rendering:optimizeQuality; fill-rule:evenodd; clip-rule:evenodd"
viewBox="0 0 14400 6000"
 xmlns:xlink="http://www.w3.org/1999/xlink"
 xmlns:xodm="http://www.corel.com/coreldraw/odm/2003">
 <defs>
  <style type="text/css">
   <![CDATA[
    .str0 {stroke:#FEFEFE;stroke-width:26.46;stroke-linecap:square;stroke-linejoin:round;stroke-miterlimit:5.01585}
    .fil4 {fill:none;fill-rule:nonzero}
    .fil3 {fill:#FEFEFE;fill-rule:nonzero}
    .fil0 {fill:#2B2A29;fill-rule:nonzero}
    .fil1 {fill:#0078BF;fill-rule:nonzero}
    .fil2 {fill:url(#id0)}
   ]]>
  </style>
  <linearGradient id="id0" gradientUnits="userSpaceOnUse" x1="3333.69" y1="162.8" x2="4519.22" y2="1736.95">
   <stop offset="0" style="stop-opacity:1; stop-color:#B0D35A"/>
   <stop offset="0.490196" style="stop-opacity:1; stop-color:#3FAB99"/>
   <stop offset="1" style="stop-opacity:1; stop-color:#00ABC8"/>
  </linearGradient>
 </defs>
 <g id="Layer_x0020_1">
  <metadata id="CorelCorpID_0Corel-Layer"/>
  <path class="fil0" d="M2637.45 2948.38l-360.37 -145.77c-137.54,-56.87 -230.14,-130.22 -277.84,-220.09 -47.68,-89.86 -63.27,-202.65 -46.77,-338.36 27.53,-201.73 97.67,-336.98 210.44,-405.74 112.79,-68.77 288.39,-103.16 526.81,-103.16 236.57,0 442.88,25.67 618.94,77.03l-41.26 283.33c-165.07,-5.51 -361.29,-8.25 -588.69,-8.25 -111.87,-1.85 -187.97,6.87 -228.32,26.14 -40.34,19.24 -66.94,71.05 -79.78,155.43 -9.16,62.33 -4.12,105.89 15.13,130.66 19.27,24.77 64.65,50.88 136.16,78.4l341.1 132.04c144.89,56.84 240.25,127.89 286.1,213.17 45.86,85.29 59.61,202.21 41.26,350.76 -27.51,209.06 -94.89,349.82 -202.17,422.25 -107.29,72.43 -289.31,108.65 -546.05,108.65 -212.74,0 -430.06,-24.75 -651.96,-74.27l44.01 -299.84c388.79,9.17 585.93,13.76 591.43,13.76 128.38,0 215.49,-12.4 261.34,-37.15 45.84,-24.74 75.18,-77.49 88.03,-158.18 7.33,-62.34 1.84,-105.43 -16.5,-129.28 -18.34,-23.84 -58.69,-47.69 -121.04,-71.53zm1079.59 720.74l-404.38 0 189.82 -1356.2 404.37 0 -189.81 1356.2zm757.74 -1356.2l0 244.85c99.03,-99.04 191.19,-171.02 276.47,-215.95 85.28,-44.93 174.68,-67.39 268.21,-67.39 99.03,0 176.96,22 233.82,66.02 56.85,44.01 89.86,106.36 99.04,187.05 170.55,-168.71 341.11,-253.07 511.65,-253.07 124.71,0 215.94,34.38 273.7,103.17 57.78,68.76 78.42,162.73 61.9,281.94l-140.29 1009.58 -404.37 0 126.54 -899.54c7.34,-56.85 2.74,-96.28 -13.76,-118.28 -16.5,-22.01 -44.93,-33.01 -85.28,-33.01 -45.84,0 -94.44,14.67 -145.79,44.02 -51.36,29.33 -121.04,83.43 -209.06,162.29l-118.3 844.52 -390.61 0 123.78 -899.54c9.18,-55.03 6.42,-93.98 -8.25,-116.91 -14.67,-22.92 -44.02,-34.38 -88.02,-34.38 -47.68,0 -97.66,14.21 -149.93,42.63 -52.27,28.42 -120.57,79.32 -204.94,152.67l-118.29 855.53 -404.37 0 189.81 -1356.2 316.34 0zm3288.53 0l-187.05 1356.2 -313.6 0 0 -255.82c-201.73,194.39 -397.04,291.57 -585.93,291.57 -130.22,0 -225.11,-33.92 -284.71,-101.78 -59.61,-67.85 -80.24,-161.38 -61.9,-280.58l140.29 -1009.59 407.13 0 -129.3 899.56c-7.33,55.01 -3.21,93.97 12.4,116.92 15.58,22.91 45.38,34.36 89.4,34.36 58.67,0 115.98,-15.57 171.92,-46.76 55.93,-31.17 130.67,-86.18 224.2,-165.04l115.53 -839.04 401.62 0zm887.04 635.46l-360.36 -145.77c-137.56,-56.87 -230.16,-130.22 -277.85,-220.09 -47.68,-89.86 -63.26,-202.65 -46.76,-338.36 27.52,-201.73 97.67,-336.98 210.44,-405.74 112.79,-68.77 288.39,-103.16 526.8,-103.16 236.56,0 442.89,25.67 618.93,77.03l-41.26 283.33c-165.05,-5.51 -361.27,-8.25 -588.68,-8.25 -111.88,-1.85 -187.97,6.87 -228.32,26.14 -40.35,19.24 -66.93,71.05 -79.77,155.43 -9.17,62.33 -4.13,105.89 15.13,130.66 19.25,24.77 64.64,50.88 136.15,78.4l341.11 132.04c144.88,56.84 240.24,127.89 286.09,213.17 45.85,85.29 59.6,202.21 41.26,350.76 -27.5,209.06 -94.9,349.82 -202.17,422.25 -107.28,72.43 -289.31,108.65 -546.05,108.65 -212.73,0 -430.06,-24.75 -651.96,-74.27l44.02 -299.84c388.79,9.17 585.92,13.76 591.43,13.76 128.37,0 215.48,-12.4 261.33,-37.15 45.85,-24.74 75.19,-77.49 88.02,-158.18 7.33,-62.34 1.85,-105.43 -16.5,-129.28 -18.34,-23.84 -58.68,-47.69 -121.03,-71.53zm1478.47 -673.95c251.24,0 426.38,56.84 525.41,170.54 99.04,113.7 130.2,301.69 93.54,563.92 -34.85,254.93 -110.5,434.66 -226.94,539.18 -116.47,104.55 -297.56,156.8 -543.31,156.8 -249.4,0 -425,-56.85 -526.78,-170.55 -101.8,-113.7 -134.34,-299.85 -97.65,-558.43 36.66,-256.75 112.77,-437.82 228.31,-543.28 115.53,-105.46 298.01,-158.18 547.42,-158.18zm-2.75 305.35c-111.88,0 -192.1,28.41 -240.69,85.28 -48.61,56.83 -84.83,171.47 -108.66,343.83 -22.01,157.73 -19.26,262.28 8.24,313.62 27.51,51.34 94.45,77.02 200.82,77.02 110.04,0 188.88,-28.88 236.56,-86.65 47.7,-57.77 83.45,-170.11 107.28,-336.99 23.85,-157.71 21.56,-263.16 -6.86,-316.35 -28.42,-53.18 -94,-79.76 -196.69,-79.76zm1896.6 -594.19l-242.07 0c-71.53,0 -123.34,12.38 -155.43,37.15 -32.09,24.74 -53.63,72.88 -64.64,144.42l-19.26 145.76 371.38 0 -35.78 272.36 -376.86 0 -181.82 1418.14c-41.36,322.73 -200.15,485.68 -480.52,534.68 -79.23,13.83 -205.69,26.02 -379.06,36.48l45.22 -309.48 206.05 -50.73c83.77,-20.61 131.13,-82.25 164.96,-131.09 33.8,-48.77 58.41,-127.38 72.47,-244.11l151.07 -1253.89 -233.82 0 33.01 -258.59 239.33 -13.77 30.25 -211.79c38.52,-275.08 197.15,-412.63 475.9,-412.63 181.55,0 330.11,9.16 445.64,27.5l-66.02 269.59zm493.66 599.69l-90.77 649.19c-7.33,51.36 -3.21,85.73 12.37,103.17 15.58,17.43 50.89,26.12 105.9,26.12l181.57 0 19.25 286.09c-97.19,34.84 -223.73,52.28 -379.61,52.28 -128.37,0 -223.74,-35.31 -286.1,-105.91 -62.34,-70.61 -84.36,-168.26 -66.02,-292.98l104.55 -717.96 -228.21 0 36.84 -269.95 229.86 -2.41 55.03 -379.6 398.87 0 -52.28 379.6 374.13 0 -38.5 272.36 -376.88 0z"/>
  <path class="fil1" d="M1965.05 4410.25l-126.36 -45.95c-45.95,-17.23 -77.22,-41.33 -93.82,-72.28 -16.59,-30.96 -21.7,-70.36 -15.31,-118.23 10.2,-70.2 33.82,-116.63 70.84,-139.28 37.01,-22.65 94.77,-33.99 173.27,-33.99 81.69,0 150.62,7.66 206.78,22.97l-12.44 84.26c-75.31,-2.57 -139.78,-3.84 -193.38,-3.84 -20.43,0 -34.95,0.16 -43.56,0.47 -8.61,0.33 -18.99,1.76 -31.12,4.31 -12.12,2.57 -20.73,6.71 -25.84,12.45 -5.1,5.74 -9.89,13.56 -14.36,23.45 -4.47,9.89 -7.98,22.83 -10.53,38.77 -3.83,27.44 -2.07,45.96 5.26,55.53 7.34,9.57 24.74,19.14 52.18,28.72l122.53 44.04c49.15,17.87 81.54,41.47 97.17,70.84 15.63,29.35 19.94,69.56 12.92,120.62 -9.57,72.11 -32.39,120.3 -68.44,144.55 -36.06,24.25 -97.49,36.37 -184.28,36.37 -72.76,0 -144.24,-7.34 -214.44,-22.01l13.4 -87.12c111.69,2.56 177.1,3.83 196.25,3.83 51.69,0 86.47,-5.1 104.34,-15.31 17.87,-10.22 29.04,-33.18 33.51,-68.93 3.83,-27.44 2.07,-46.11 -5.26,-56 -7.34,-9.89 -23.78,-19.31 -49.31,-28.24zm383.88 -410.69l52.65 0c11.49,0 19.95,3.2 25.37,9.57 5.42,6.39 7.5,15.01 6.22,25.85l-6.7 52.65c-3.83,21.06 -15.96,31.59 -36.37,31.59l-52.66 0c-24.25,0 -34.78,-12.12 -31.59,-36.37l7.66 -51.7c1.91,-21.06 13.72,-31.59 35.42,-31.59zm-7.66 672.99l-115.83 0 66.06 -469.08 114.87 0 -65.1 469.08zm286.24 -469.08l-1.92 92.86c68.93,-70.84 134.35,-106.26 196.25,-106.26 35.1,0 62.22,8.61 81.37,25.85 19.15,17.23 29.36,41.16 30.64,71.79 34.46,-34.47 66.37,-59.36 95.73,-74.67 29.36,-15.32 59.67,-22.97 90.94,-22.97 41.48,0 71.96,11.8 91.42,35.42 19.47,23.61 26.01,55.84 19.63,96.68l-48.82 350.38 -114.88 0 44.04 -319.74c3.83,-24.25 2.39,-41 -4.31,-50.25 -6.7,-9.26 -18.67,-13.89 -35.9,-13.89 -19.78,0 -39.73,6.22 -59.84,18.67 -20.1,12.45 -49.29,36.53 -87.59,72.27l-41.16 292.94 -111.05 0 44.04 -319.74c3.19,-22.97 1.91,-39.41 -3.83,-49.3 -5.75,-9.9 -17.88,-14.84 -36.38,-14.84 -20.43,0 -40.69,6.07 -60.79,18.2 -20.11,12.11 -48.98,35.1 -86.64,68.91l-41.16 296.77 -114.87 0 66.05 -469.08 89.03 0zm1169.82 0l-65.09 469.08 -89.99 0 3.83 -92.86c-74.03,70.2 -143.6,105.3 -208.69,105.3 -43.4,0 -74.99,-11.8 -94.77,-35.42 -19.79,-23.6 -26.49,-55.84 -20.11,-96.68l48.82 -349.42 115.84 0 -45 318.78c-3.83,23.62 -2.71,40.2 3.36,49.77 6.06,9.59 18.35,14.37 36.85,14.37 23.61,0 46.59,-6.7 68.92,-20.11 22.34,-13.39 52.66,-36.69 90.95,-69.88l40.21 -292.93 114.87 0zm273.79 -201.03l-74.67 526.52c-2.55,19.77 -0.48,33.33 6.23,40.68 6.7,7.35 20.26,11 40.69,11l42.12 0 4.78 87.12c-20.42,10.22 -53.29,15.32 -98.61,15.32 -40.2,0 -70.52,-11.49 -90.93,-34.47 -20.43,-22.96 -28.08,-55.2 -22.98,-96.68l77.54 -549.49 115.83 0zm515.99 670.11l-91.9 0 2.87 -81.37c-52.97,61.27 -118.38,92.22 -196.25,92.85 -57.43,0.64 -96.53,-18.18 -117.27,-56.48 -20.73,-38.29 -24.72,-104.02 -11.96,-197.19 7.65,-52.97 18.35,-95.89 32.07,-128.77 13.72,-32.86 31.74,-57.28 54.08,-73.24 22.35,-15.94 44.84,-26.32 67.5,-31.11 22.65,-4.79 52.17,-7.17 88.55,-7.17 81.05,0 159.86,9.26 236.45,27.75l-64.14 454.73zm-62.23 -388.67l-85.19 -0.96c-29.36,0 -51.7,1.44 -67.01,4.31 -15.32,2.88 -28.88,9.89 -40.69,21.07 -11.81,11.16 -20.43,26.32 -25.85,45.46 -5.43,19.15 -10.69,46.59 -15.79,82.33 -8.94,65.74 -10.7,107.23 -5.27,124.46 5.42,17.23 21.22,25.84 47.39,25.84 26.8,0 52.65,-7.5 77.54,-22.49 24.89,-15 53.29,-38.45 85.2,-70.37l29.67 -209.65zm399.21 3.83l-34.47 241.25c-2.55,20.42 -0.8,34.13 5.27,41.15 6.06,7.03 19.62,10.53 40.68,10.53l66.06 0 4.78 86.16c-32.54,10.86 -72.11,16.28 -118.7,16.28 -42.76,0 -74.2,-12.13 -94.3,-36.37 -20.1,-24.26 -26.96,-58.4 -20.58,-102.44l36.38 -256.56 -85.2 0 10.53 -79.45 87.12 -4.79 19.14 -134.98 114.88 0 -19.15 134.98 135.94 0 -10.53 84.24 -137.85 0zm297.72 -288.15l52.65 0c11.48,0 19.95,3.2 25.37,9.57 5.42,6.39 7.49,15.01 6.22,25.85l-6.7 52.65c-3.83,21.06 -15.96,31.59 -36.38,31.59l-52.66 0c-24.24,0 -34.77,-12.12 -31.59,-36.37l7.67 -51.7c1.91,-21.06 13.72,-31.59 35.42,-31.59zm-7.66 672.99l-115.83 0 66.05 -469.08 114.87 0 -65.09 469.08zm289.11 -469.08l-2.88 96.69c79.14,-73.4 151.89,-110.09 218.27,-110.09 39.56,0 69.72,11.48 90.46,34.46 20.75,22.98 28.24,55.52 22.5,97.64l-49.78 350.38 -115.83 0 44.03 -317.82c3.19,-26.17 2.4,-43.88 -2.39,-53.14 -4.79,-9.26 -15.48,-13.56 -32.07,-12.92 -24.25,0 -49.14,7.02 -74.67,21.05 -25.53,14.04 -58.71,37.03 -99.56,68.94l-40.21 293.89 -115.83 0 66.05 -469.08 91.91 0zm897.95 14.35l-60.31 430.79c-16.59,148.07 -112.65,222.1 -288.15,222.1 -66.37,0 -119.66,-7.34 -159.87,-22.02l10.53 -73.71c45.95,1.27 93.18,1.91 141.68,1.91 103.39,0 163.06,-32.55 179.02,-97.65 0.63,-3.18 2.55,-11.15 5.74,-23.91 3.19,-12.78 5.74,-22.19 7.66,-28.26 1.92,-6.05 4.95,-14.19 9.09,-24.41 4.16,-10.21 8.78,-19.46 13.89,-27.76 -24.26,31.91 -54.57,57.76 -90.95,77.55 -36.38,19.77 -76.58,30 -120.62,30.63 -52.97,0.64 -90.62,-18.02 -112.97,-56.01 -22.33,-37.97 -26.8,-103.54 -13.39,-196.71 6.37,-42.77 14.84,-79.14 25.37,-109.14 10.53,-29.99 22.17,-53.45 34.94,-70.36 12.76,-16.91 28.56,-30 47.38,-39.25 18.83,-9.25 36.7,-15.17 53.61,-17.7 16.91,-2.57 38.13,-3.84 63.66,-3.84 91.91,0 176.47,9.26 253.69,27.75zm-125.41 66.06l-88.07 -0.96c-54.25,0 -89.83,8.62 -106.74,25.85 -16.91,17.24 -30.48,59.68 -40.68,127.32 -8.3,64.46 -9.58,105.78 -3.84,123.98 5.75,18.19 21.06,26.97 45.96,26.32 27.44,-0.63 53.44,-8.29 78.01,-22.97 24.57,-14.69 52.82,-37.97 84.73,-69.89l30.63 -209.65zm686.39 126.37l-126.37 -45.95c-45.95,-17.23 -77.22,-41.33 -93.81,-72.28 -16.59,-30.96 -21.7,-70.36 -15.32,-118.23 10.21,-70.2 33.83,-116.63 70.85,-139.28 37.01,-22.65 94.76,-33.99 173.27,-33.99 81.68,0 150.61,7.66 206.77,22.97l-12.44 84.26c-75.3,-2.57 -139.77,-3.84 -193.37,-3.84 -20.43,0 -34.95,0.16 -43.57,0.47 -8.61,0.33 -18.98,1.76 -31.11,4.31 -12.12,2.57 -20.74,6.71 -25.85,12.45 -5.1,5.74 -9.88,13.56 -14.36,23.45 -4.46,9.89 -7.97,22.83 -10.53,38.77 -3.82,27.44 -2.06,45.96 5.27,55.53 7.34,9.57 24.73,19.14 52.18,28.72l122.53 44.04c49.14,17.87 81.53,41.47 97.16,70.84 15.64,29.35 19.95,69.56 12.93,120.62 -9.57,72.11 -32.39,120.3 -68.44,144.55 -36.07,24.25 -97.49,36.37 -184.29,36.37 -72.76,0 -144.23,-7.34 -214.43,-22.01l13.39 -87.12c111.7,2.56 177.11,3.83 196.26,3.83 51.69,0 86.47,-5.1 104.34,-15.31 17.87,-10.22 29.04,-33.18 33.51,-68.93 3.82,-27.44 2.07,-46.11 -5.26,-56 -7.35,-9.89 -23.78,-19.31 -49.31,-28.24zm745.74 -206.78l-65.09 469.08 -89.99 0 3.83 -92.86c-74.03,70.2 -143.6,105.3 -208.7,105.3 -43.39,0 -74.98,-11.8 -94.77,-35.42 -19.79,-23.6 -26.49,-55.84 -20.1,-96.68l48.82 -349.42 115.83 0 -44.99 318.78c-3.83,23.62 -2.71,40.2 3.35,49.77 6.07,9.59 18.35,14.37 36.86,14.37 23.61,0 46.58,-6.7 68.92,-20.11 22.34,-13.39 52.66,-36.69 90.95,-69.88l40.2 -292.93 114.88 0zm441.32 375.26l7.66 77.55c-48.51,18.5 -106.27,27.75 -173.28,27.75 -84.24,0 -141.99,-19.45 -173.26,-58.38 -31.28,-38.93 -40.53,-103.09 -27.77,-192.42 12.76,-89.36 38.3,-152.21 76.58,-188.6 38.3,-36.37 98.29,-54.56 179.98,-54.56 67.65,0 122.53,9.26 164.65,27.75l-16.27 70.85c-65.1,-1.28 -108.81,-1.91 -131.15,-1.91 -51.06,0 -87.28,10.05 -108.66,30.16 -21.37,20.09 -35.9,61.1 -43.55,123 -7.66,62.54 -4.79,102.92 8.62,121.11 13.4,18.18 44.03,27.28 91.89,27.28 53.62,0 101.8,-3.2 144.56,-9.58zm465.25 0l7.66 77.55c-48.51,18.5 -106.27,27.75 -173.28,27.75 -84.24,0 -141.99,-19.45 -173.26,-58.38 -31.28,-38.93 -40.53,-103.09 -27.77,-192.42 12.76,-89.36 38.3,-152.21 76.59,-188.6 38.29,-36.37 98.28,-54.56 179.97,-54.56 67.65,0 122.53,9.26 164.65,27.75l-16.27 70.85c-65.1,-1.28 -108.81,-1.91 -131.14,-1.91 -51.06,0 -87.28,10.05 -108.66,30.16 -21.38,20.09 -35.9,61.1 -43.56,123 -7.66,62.54 -4.79,102.92 8.62,121.11 13.4,18.18 44.03,27.28 91.89,27.28 53.62,0 101.8,-3.2 144.56,-9.58zm497.8 -0.95l7.66 75.62c-49.14,20.43 -115.51,30.63 -199.12,30.63 -83.6,0 -141.68,-21.22 -174.23,-63.65 -32.55,-42.44 -43.08,-107.37 -31.59,-194.81 12.12,-90 37.34,-151.74 75.62,-185.24 38.3,-33.51 101.48,-50.26 189.55,-50.26 77.86,0 130.36,13.24 157.48,39.73 27.12,26.48 37.18,65.26 30.16,116.31 -6.39,45.94 -24.25,79.14 -53.62,99.56 -29.35,20.41 -74.34,32.55 -134.97,36.38l-148.39 12.44c0.65,37.01 9.58,62.07 26.8,75.15 17.24,13.09 43.4,19.62 78.51,19.62 52.97,0 111.68,-3.82 176.14,-11.48zm-274.75 -161.78l134.03 -11.5c26.8,-1.92 46.43,-7.82 58.87,-17.7 12.45,-9.89 20.26,-26.96 23.46,-51.23 1.91,-24.24 -2.88,-39.24 -14.36,-44.98 -11.49,-5.76 -36.07,-8.61 -73.72,-8.61 -42.12,0.63 -71.8,9.72 -89.03,27.27 -17.22,17.55 -30.31,53.12 -39.25,106.75zm627.03 86.15l-119.66 -53.62c-36.37,-16.59 -61.9,-36.04 -76.58,-58.38 -14.68,-22.34 -20.11,-50.11 -16.28,-83.28 5.11,-43.41 23.78,-73.88 56.01,-91.43 32.22,-17.55 81.53,-26.01 147.9,-25.37 74.67,1.27 143.92,7.01 207.73,17.23l-12.44 79.46c-60.63,-1.93 -123.18,-2.88 -187.63,-2.88 -38.93,0 -64.78,1.61 -77.54,4.79 -12.77,3.18 -20.11,11.8 -22.02,25.84 -1.92,12.76 0.96,22.5 8.61,29.2 7.66,6.71 22.66,14.84 45,24.42l119.66 53.61c39.57,17.23 66.69,35.89 81.38,56 14.67,20.1 19.78,47.71 15.31,82.81 -3.19,21.7 -8.94,39.88 -17.23,54.56 -8.3,14.68 -18.35,26.48 -30.16,35.43 -11.81,8.93 -27.44,15.78 -46.91,20.57 -19.46,4.79 -39.08,7.98 -58.87,9.58 -19.79,1.59 -44.36,2.39 -73.71,2.39 -24.25,0 -45.63,-0.47 -64.14,-1.43 -18.51,-0.96 -32.39,-1.93 -41.64,-2.88 -9.26,-0.95 -23.14,-2.71 -41.65,-5.26 -18.51,-2.56 -33.5,-4.47 -44.99,-5.75l12.44 -81.37c33.83,2.55 82.33,3.84 145.51,3.84 58.08,0 96.53,-2.41 115.36,-7.19 18.83,-4.78 29.83,-14.83 33.02,-30.15 -0.63,-3.84 -0.47,-6.87 0.49,-9.1 0.96,-2.23 0.48,-4.62 -1.44,-7.19 -1.91,-2.53 -3.03,-4.46 -3.35,-5.73 -0.32,-1.28 -1.92,-2.88 -4.78,-4.79 -2.88,-1.92 -4.96,-3.52 -6.23,-4.78 -1.27,-1.27 -3.83,-2.72 -7.66,-4.31 -3.83,-1.6 -7.02,-3.04 -9.57,-4.3 -2.56,-1.28 -6.38,-3.05 -11.49,-5.27 -5.11,-2.24 -9.25,-3.99 -12.45,-5.27zm492.06 0l-119.66 -53.62c-36.38,-16.59 -61.91,-36.04 -76.59,-58.38 -14.67,-22.34 -20.1,-50.11 -16.27,-83.28 5.11,-43.41 23.77,-73.88 56,-91.43 32.23,-17.55 81.53,-26.01 147.91,-25.37 74.66,1.27 143.91,7.01 207.73,17.23l-12.44 79.46c-60.64,-1.93 -123.18,-2.88 -187.64,-2.88 -38.93,0 -64.78,1.61 -77.54,4.79 -12.76,3.18 -20.1,11.8 -22.02,25.84 -1.92,12.76 0.96,22.5 8.61,29.2 7.67,6.71 22.66,14.84 45,24.42l119.67 53.61c39.56,17.23 66.69,35.89 81.37,56 14.67,20.1 19.78,47.71 15.32,82.81 -3.2,21.7 -8.94,39.88 -17.24,54.56 -8.3,14.68 -18.35,26.48 -30.16,35.43 -11.8,8.93 -27.43,15.78 -46.9,20.57 -19.46,4.79 -39.09,7.98 -58.87,9.58 -19.79,1.59 -44.36,2.39 -73.72,2.39 -24.25,0 -45.63,-0.47 -64.13,-1.43 -18.52,-0.96 -32.39,-1.93 -41.65,-2.88 -9.26,-0.95 -23.13,-2.71 -41.65,-5.26 -18.5,-2.56 -33.5,-4.47 -44.98,-5.75l12.44 -81.37c33.82,2.55 82.33,3.84 145.5,3.84 58.08,0 96.54,-2.41 115.36,-7.19 18.83,-4.78 29.84,-14.83 33.03,-30.15 -0.64,-3.84 -0.48,-6.87 0.48,-9.1 0.96,-2.23 0.48,-4.62 -1.44,-7.19 -1.91,-2.53 -3.03,-4.46 -3.34,-5.73 -0.32,-1.28 -1.92,-2.88 -4.79,-4.79 -2.88,-1.92 -4.95,-3.52 -6.23,-4.78 -1.27,-1.27 -3.82,-2.72 -7.65,-4.31 -3.84,-1.6 -7.02,-3.04 -9.58,-4.3 -2.55,-1.28 -6.37,-3.05 -11.48,-5.27 -5.11,-2.24 -9.26,-3.99 -12.45,-5.27z"/>
  <path class="fil2" d="M4588.77 1177.76c0,4.52 0,9.34 0.27,13.87 0.26,4.81 0.53,9.33 0.53,14.13 0,4.83 -0.27,9.35 -0.53,14.14 -0.27,4.55 -0.27,9.35 -0.27,13.89l202.3 125.98 -124.1 299.43 -232.18 -53.11c-12.57,13.63 -25.63,26.69 -39.26,38.97l53.11 232.46 -299.43 124.1 -125.97 -202.29c-4.55,0 -9.35,0 -13.89,0.26 -4.8,0.26 -9.32,0.53 -14.12,0.53 -4.84,0 -9.35,-0.27 -14.16,-0.53 -4.53,-0.26 -9.34,-0.26 -13.88,-0.26l-125.98 202.29 -299.43 -124.1 53.11 -232.46c-13.62,-12.28 -26.69,-25.34 -38.97,-38.97l-232.46 53.11 -124.11 -299.43 202.3 -125.98c0,-4.54 0,-9.34 -0.27,-13.89 -0.26,-4.79 -0.53,-9.31 -0.53,-14.14 0,-4.8 0.27,-9.32 0.53,-14.13 0.27,-4.53 0.27,-9.35 0.27,-13.87l-202.3 -125.99 124.11 -299.43 232.46 53.1c12.28,-13.6 25.35,-26.68 38.97,-39.24l-53.11 -232.18 299.43 -124.11 125.98 202.3c4.54,0 9.35,0 13.88,-0.27 4.81,-0.26 9.32,-0.53 14.16,-0.53 4.8,0 9.32,0.27 14.12,0.53 4.54,0.27 9.34,0.27 13.89,0.27l125.97 -202.3 299.43 124.11 -53.11 232.18c13.63,12.56 26.69,25.64 39.26,39.24l232.18 -53.1 124.1 299.43 -202.3 125.99z"/>
  <path class="fil3" d="M3995.22 1013.48c26.51,0 51.46,5.06 74.85,15.17 23.38,9.96 43.8,23.74 61.08,41.18 17.44,17.29 31.23,37.71 41.18,61.09 10.12,23.39 15.18,48.34 15.18,74.85 0,26.52 -5.06,51.48 -15.18,74.86 -9.95,23.38 -23.74,43.81 -41.18,61.09 -17.28,17.44 -37.7,31.06 -61.08,41.17 -23.39,10.13 -48.34,15.18 -74.85,15.18 -26.53,0 -51.48,-5.05 -74.87,-15.18 -23.38,-10.11 -43.79,-23.73 -61.07,-41.17 -17.45,-17.28 -31.06,-37.71 -41.19,-61.09 -10.12,-23.38 -15.18,-48.34 -15.18,-74.86 0,-26.51 5.06,-51.46 15.18,-74.85 10.13,-23.38 23.74,-43.8 41.19,-61.09 17.28,-17.44 37.69,-31.22 61.07,-41.18 23.39,-10.11 48.34,-15.17 74.87,-15.17z"/>
  <g>
   <path class="fil3" d="M4139.59 1552.76l28.74 66.39 -28.74 -66.39zm-292.64 0l-28.71 66.39 28.71 -66.39zm-120.04 -80.88l-50.88 51.38 -0.25 -0.25 51.13 -51.13zm-197.56 -296.86l-13.31 239.8 197.18 -85.27 -183.87 -154.53zm781.4 347.99l-0.25 0.25 0.25 -0.25 -51.38 -50.89 13.73 -14.36 -0.14 0.19c10.32,-11.86 18.64,-22.41 28.01,-34.92l-0.14 0.16 1.2 -1.67 -0.14 0.17c7.22,-10.43 13.45,-20.62 19.83,-31.67 7.09,-12.9 12.41,-24.32 18.45,-37.72l66.55 28.29c-2.39,6.43 -6.33,14.79 -9.48,20.88 -4.46,9.52 -10.4,21.32 -16.08,30.31 -3.24,5.9 -7.41,12.58 -11.26,18.35l0.13 -0.17c-2.91,4.61 -6.26,9.75 -9.52,14.08l0.14 -0.16c-14.64,20.72 -30.61,39.85 -48.56,57.82l0.16 -0.17 -1.5 1.48 -51.38 -50.89 -6.17 6.07 0.16 -0.16c-7.67,7.24 -15.05,13.75 -23.25,20.54l0.19 -0.15 -22.81 17.04 0.17 -0.14 -11.45 7.59 0.2 -0.13 -6.32 3.95 0.18 -0.11c-24.05,14.32 -48.38,26.27 -74.81,35.57 -40.89,13.63 -78.58,20.19 -122.18,20.19 -16.67,0 -31.43,-1.33 -47.76,-2.87l-16.75 -2.45c-29.01,-5.5 -54.46,-12.44 -81.82,-24.3 -7.22,-2.9 -14.69,-6.68 -21.72,-10.11l-16.36 -8.67 -20.3 -12.2 0.18 0.13 -9.88 -6.59 0.16 0.14 -22.79 -17.04 0.18 0.15c-8.2,-6.79 -15.58,-13.3 -23.25,-20.54l0.16 0.16 -12.48 -12.5 0.16 0.17c-7.23,-7.65 -13.76,-15.05 -20.54,-23.24l0.14 0.17 -17.04 -22.79 0.15 0.17 -6.59 -9.9 0.12 0.2 -12.27 -20.45 -8.66 -16.34c-3.36,-6.93 -7.16,-14.36 -10.04,-21.59l-66.39 28.71c7.38,17.53 17.24,37.44 27.22,53.66 4.72,8.57 12.04,20.13 17.99,28.07l-0.15 -0.16c14.62,21.11 31.3,41.13 49.5,59.33l-0.17 -0.17 3.22 3.22 -0.16 -0.17c18.21,18.22 38.22,34.88 59.34,49.5l-0.17 -0.14c7.92,5.95 19.5,13.27 28.23,18.09 16.06,9.88 35.94,19.74 53.48,27.12 8.08,3.07 15.93,6.85 24.21,9.62 6.18,2.35 12.84,4.44 19.25,6.47 6.36,2.18 14.75,4.52 21.41,6l3.63 0.92c8.9,2.36 19.45,4.53 28.65,5.96 5.1,1.03 10.66,1.77 15.84,2.46l6.97 0.89c17.45,2.49 37.32,3.26 55.1,3.26 20.66,0 43.77,-1.16 63.97,-4.41 13.01,-1.78 28.19,-4.33 40.78,-7.73 25.6,-5.83 46.09,-14.22 70.29,-23.44 15.66,-6.58 36.08,-16.3 50.41,-25.35 9.76,-5.41 22.27,-13.1 31.29,-19.86l-0.17 0.14c21.14,-14.64 41.16,-31.31 59.34,-49.5l-0.16 0.17 1.72 -1.74zm-463.79 -664.23l-28.74 -66.38 28.74 66.38zm292.85 0.09l28.3 -66.57 0.22 0.1 -28.52 66.47zm119.8 80.8l50.89 -51.38 0.25 0.24 -51.14 51.14zm200.03 301.81l14.75 -239.73 -197.7 84.06 182.95 155.67zm-783.86 -352.95l0.25 -0.24 -0.25 0.24 51.39 50.9 -6.32 6.41 0.16 -0.17c-7.23,7.68 -13.76,15.05 -20.54,23.25l0.14 -0.18 -17.04 22.81 0.15 -0.17 -11.4 17.57 0.1 -0.18c-9.95,16.71 -18.31,32.83 -26.14,50.66l-66.39 -28.7c6.58,-15.65 16.28,-36.09 25.34,-50.43 5.41,-9.76 13.1,-22.26 19.87,-31.27l-0.15 0.15c14.64,-21.14 31.3,-41.13 49.5,-59.34l-0.17 0.18 1.5 -1.49 51.39 50.9 14.1 -13.5 -0.19 0.15c11.87,-10.31 22.41,-18.64 34.92,-28.01l-0.16 0.15 1.68 -1.22 -0.16 0.14c10.41,-7.2 20.6,-13.45 31.66,-19.81l20.97 -10.89c5.23,-2.45 11.5,-5.67 16.97,-7.66 26.6,-11.85 53.42,-18.93 81.84,-24.29l16.72 -2.46c16.33,-1.53 31.09,-2.88 47.76,-2.88 25.92,0 50.27,2.49 75.37,7.36 16.63,3.87 30.53,7.4 46.93,12.89 29.16,10.27 57.43,24.17 83.42,40.88l-0.18 -0.13 1.34 0.87 -0.19 -0.11 3.28 2.16 -0.18 -0.11 6.11 4.18 -0.17 -0.14 1.69 1.22 -0.17 -0.15c12.49,9.37 23.04,17.7 34.92,28.01l-0.18 -0.15 14.34 13.74 13.49 14.1 -0.14 -0.17c10.32,11.87 18.64,22.43 28.01,34.91l-0.14 -0.17 1.2 1.69 -0.14 -0.16 4.18 6.1 -0.1 -0.18 2.15 3.27 -0.1 -0.17 0.86 1.33 -0.12 -0.19c12.57,19.56 21.8,38.03 31.41,59.19l66.55 -28.28c-2.74,-7.34 -7.01,-16.01 -10.53,-23.05 -4.76,-9.78 -10.2,-20.34 -15.97,-29.74 -2.67,-4.85 -6.14,-10.41 -9.32,-15.19l0.13 0.19 -4.1 -6.29 0.1 0.17 -6.52 -9.52 0.14 0.16c-14.64,-20.71 -30.61,-39.87 -48.56,-57.83l0.16 0.18 -3.22 -3.23 0.16 0.16c-17.96,-17.95 -37.11,-33.93 -57.82,-48.56l0.17 0.14 -9.54 -6.52 0.19 0.09 -6.3 -4.1 0.18 0.13c-4.77,-3.18 -10.33,-6.64 -15.35,-9.41 -9.22,-5.68 -19.79,-11.12 -29.69,-15.94 -6.89,-3.42 -15.4,-7.63 -22.7,-10.38l-0.22 -0.1c-24.11,-9.19 -44.55,-17.54 -70.14,-23.37 -12.55,-3.37 -27.68,-5.94 -40.72,-7.69 -20.2,-3.28 -43.28,-4.42 -63.97,-4.42 -17.78,0 -37.67,0.78 -55.1,3.27l-6.97 0.87c-5.18,0.7 -10.74,1.44 -15.87,2.46l-13.1 2.48 -19.23 4.41c-6.56,1.47 -14.99,3.82 -21.41,6.03 -6.33,1.99 -12.99,4.09 -19.27,6.48 -8.1,2.71 -15.91,6.44 -23.89,9.48l-0.22 0.1c-6.38,2.39 -14.62,6.28 -20.65,9.41 -9.51,4.44 -21.33,10.4 -30.3,16.07 -5.91,3.23 -12.59,7.4 -18.38,11.26l0.19 -0.12c-4.62,2.9 -9.74,6.25 -14.09,9.51l0.17 -0.14c-20.73,14.63 -39.86,30.61 -57.82,48.56l0.16 -0.16 -1.72 1.74z"/>
   <path id="_1" class="fil4 str0" d="M4139.59 1552.76l28.74 66.39m-321.38 -66.39l-28.71 66.39m-91.33 -147.27l-50.88 51.38 -0.25 -0.25 51.13 -51.13zm-197.56 -296.86l-13.31 239.8 197.18 -85.27 -183.87 -154.53zm781.4 347.99l-0.25 0.25 0.25 -0.25 -51.38 -50.89 13.73 -14.36 -0.14 0.19c10.32,-11.86 18.64,-22.41 28.01,-34.92l-0.14 0.16 1.2 -1.67 -0.14 0.17c7.22,-10.43 13.45,-20.62 19.83,-31.67 7.09,-12.9 12.41,-24.32 18.45,-37.72l66.55 28.29c-2.39,6.43 -6.33,14.79 -9.48,20.88 -4.46,9.52 -10.4,21.32 -16.08,30.31 -3.24,5.9 -7.41,12.58 -11.26,18.35l0.13 -0.17c-2.91,4.61 -6.26,9.75 -9.52,14.08l0.14 -0.16c-14.64,20.72 -30.61,39.85 -48.56,57.82l0.16 -0.17 -1.5 1.48 -51.38 -50.89 -6.17 6.07 0.16 -0.16c-7.67,7.24 -15.05,13.75 -23.25,20.54l0.19 -0.15 -22.81 17.04 0.17 -0.14 -11.45 7.59 0.2 -0.13 -6.32 3.95 0.18 -0.11c-24.05,14.32 -48.38,26.27 -74.81,35.57 -40.89,13.63 -78.58,20.19 -122.18,20.19 -16.67,0 -31.43,-1.33 -47.76,-2.87l-16.75 -2.45c-29.01,-5.5 -54.46,-12.44 -81.82,-24.3 -7.22,-2.9 -14.69,-6.68 -21.72,-10.11l-16.36 -8.67 -20.3 -12.2 0.18 0.13 -9.88 -6.59 0.16 0.14 -22.79 -17.04 0.18 0.15c-8.2,-6.79 -15.58,-13.3 -23.25,-20.54l0.16 0.16 -12.48 -12.5 0.16 0.17c-7.23,-7.65 -13.76,-15.05 -20.54,-23.24l0.14 0.17 -17.04 -22.79 0.15 0.17 -6.59 -9.9 0.12 0.2 -12.27 -20.45 -8.66 -16.34c-3.36,-6.93 -7.16,-14.36 -10.04,-21.59l-66.39 28.71c7.38,17.53 17.24,37.44 27.22,53.66 4.72,8.57 12.04,20.13 17.99,28.07l-0.15 -0.16c14.62,21.11 31.3,41.13 49.5,59.33l-0.17 -0.17 3.22 3.22 -0.16 -0.17c18.21,18.22 38.22,34.88 59.34,49.5l-0.17 -0.14c7.92,5.95 19.5,13.27 28.23,18.09 16.06,9.88 35.94,19.74 53.48,27.12 8.08,3.07 15.93,6.85 24.21,9.62 6.18,2.35 12.84,4.44 19.25,6.47 6.36,2.18 14.75,4.52 21.41,6l3.63 0.92c8.9,2.36 19.45,4.53 28.65,5.96 5.1,1.03 10.66,1.77 15.84,2.46l6.97 0.89c17.45,2.49 37.32,3.26 55.1,3.26 20.66,0 43.77,-1.16 63.97,-4.41 13.01,-1.78 28.19,-4.33 40.78,-7.73 25.6,-5.83 46.09,-14.22 70.29,-23.44 15.66,-6.58 36.08,-16.3 50.41,-25.35 9.76,-5.41 22.27,-13.1 31.29,-19.86l-0.17 0.14c21.14,-14.64 41.16,-31.31 59.34,-49.5l-0.16 0.17 1.72 -1.74zm-463.79 -664.23l-28.74 -66.38m321.59 66.47l28.3 -66.57 0.22 0.1 -28.52 66.47zm119.8 80.8l50.89 -51.38 0.25 0.24 -51.14 51.14zm200.03 301.81l14.75 -239.73 -197.7 84.06 182.95 155.67zm-783.86 -352.95l0.25 -0.24 -0.25 0.24 51.39 50.9 -6.32 6.41 0.16 -0.17c-7.23,7.68 -13.76,15.05 -20.54,23.25l0.14 -0.18 -17.04 22.81 0.15 -0.17 -11.4 17.57 0.1 -0.18c-9.95,16.71 -18.31,32.83 -26.14,50.66l-66.39 -28.7c6.58,-15.65 16.28,-36.09 25.34,-50.43 5.41,-9.76 13.1,-22.26 19.87,-31.27l-0.15 0.15c14.64,-21.14 31.3,-41.13 49.5,-59.34l-0.17 0.18 1.5 -1.49 51.39 50.9 14.1 -13.5 -0.19 0.15c11.87,-10.31 22.41,-18.64 34.92,-28.01l-0.16 0.15 1.68 -1.22 -0.16 0.14c10.41,-7.2 20.6,-13.45 31.66,-19.81l20.97 -10.89c5.23,-2.45 11.5,-5.67 16.97,-7.66 26.6,-11.85 53.42,-18.93 81.84,-24.29l16.72 -2.46c16.33,-1.53 31.09,-2.88 47.76,-2.88 25.92,0 50.27,2.49 75.37,7.36 16.63,3.87 30.53,7.4 46.93,12.89 29.16,10.27 57.43,24.17 83.42,40.88l-0.18 -0.13 1.34 0.87 -0.19 -0.11 3.28 2.16 -0.18 -0.11 6.11 4.18 -0.17 -0.14 1.69 1.22 -0.17 -0.15c12.49,9.37 23.04,17.7 34.92,28.01l-0.18 -0.15 14.34 13.74 13.49 14.1 -0.14 -0.17c10.32,11.87 18.64,22.43 28.01,34.91l-0.14 -0.17 1.2 1.69 -0.14 -0.16 4.18 6.1 -0.1 -0.18 2.15 3.27 -0.1 -0.17 0.86 1.33 -0.12 -0.19c12.57,19.56 21.8,38.03 31.41,59.19l66.55 -28.28c-2.74,-7.34 -7.01,-16.01 -10.53,-23.05 -4.76,-9.78 -10.2,-20.34 -15.97,-29.74 -2.67,-4.85 -6.14,-10.41 -9.32,-15.19l0.13 0.19 -4.1 -6.29 0.1 0.17 -6.52 -9.52 0.14 0.16c-14.64,-20.71 -30.61,-39.87 -48.56,-57.83l0.16 0.18 -3.22 -3.23 0.16 0.16c-17.96,-17.95 -37.11,-33.93 -57.82,-48.56l0.17 0.14 -9.54 -6.52 0.19 0.09 -6.3 -4.1 0.18 0.13c-4.77,-3.18 -10.33,-6.64 -15.35,-9.41 -9.22,-5.68 -19.79,-11.12 -29.69,-15.94 -6.89,-3.42 -15.4,-7.63 -22.7,-10.38l-0.22 -0.1c-24.11,-9.19 -44.55,-17.54 -70.14,-23.37 -12.55,-3.37 -27.68,-5.94 -40.72,-7.69 -20.2,-3.28 -43.28,-4.42 -63.97,-4.42 -17.78,0 -37.67,0.78 -55.1,3.27l-6.97 0.87c-5.18,0.7 -10.74,1.44 -15.87,2.46l-13.1 2.48 -19.23 4.41c-6.56,1.47 -14.99,3.82 -21.41,6.03 -6.33,1.99 -12.99,4.09 -19.27,6.48 -8.1,2.71 -15.91,6.44 -23.89,9.48l-0.22 0.1c-6.38,2.39 -14.62,6.28 -20.65,9.41 -9.51,4.44 -21.33,10.4 -30.3,16.07 -5.91,3.23 -12.59,7.4 -18.38,11.26l0.19 -0.12c-4.62,2.9 -9.74,6.25 -14.09,9.51l0.17 -0.14c-20.73,14.63 -39.86,30.61 -57.82,48.56l0.16 -0.16 -1.72 1.74z"/>
  </g>
 </g>
</svg>
